<mxfile host="Electron" agent="Mozilla/5.0 (Windows NT 10.0; Win64; x64) AppleWebKit/537.36 (KHTML, like Gecko) draw.io/24.7.8 Chrome/128.0.6613.36 Electron/32.0.1 Safari/537.36" version="24.7.8">
  <diagram name="Página-1" id="16WfSlsm2hMY5FnOzRjm">
    <mxGraphModel dx="404" dy="276" grid="1" gridSize="10" guides="1" tooltips="1" connect="1" arrows="1" fold="1" page="1" pageScale="1" pageWidth="827" pageHeight="1169" math="0" shadow="0">
      <root>
        <mxCell id="0" />
        <mxCell id="1" parent="0" />
        <mxCell id="y8rQY9mG8gNt_0g14nDT-3" value="" style="edgeStyle=orthogonalEdgeStyle;rounded=0;orthogonalLoop=1;jettySize=auto;html=1;flowAnimation=1;" edge="1" parent="1" source="y8rQY9mG8gNt_0g14nDT-1" target="y8rQY9mG8gNt_0g14nDT-2">
          <mxGeometry relative="1" as="geometry" />
        </mxCell>
        <mxCell id="y8rQY9mG8gNt_0g14nDT-1" value="Necesidad" style="rounded=0;whiteSpace=wrap;html=1;" vertex="1" parent="1">
          <mxGeometry x="30" y="20" width="120" height="60" as="geometry" />
        </mxCell>
        <mxCell id="y8rQY9mG8gNt_0g14nDT-2" value="Definir&amp;nbsp;&lt;div&gt;RF (Qué)&lt;/div&gt;&lt;div&gt;NRF (Cómo)&lt;/div&gt;" style="whiteSpace=wrap;html=1;rounded=0;" vertex="1" parent="1">
          <mxGeometry x="220" y="20" width="120" height="60" as="geometry" />
        </mxCell>
        <mxCell id="y8rQY9mG8gNt_0g14nDT-6" style="edgeStyle=orthogonalEdgeStyle;rounded=0;orthogonalLoop=1;jettySize=auto;html=1;entryX=1;entryY=0.5;entryDx=0;entryDy=0;flowAnimation=1;" edge="1" parent="1" source="y8rQY9mG8gNt_0g14nDT-4" target="y8rQY9mG8gNt_0g14nDT-2">
          <mxGeometry relative="1" as="geometry" />
        </mxCell>
        <mxCell id="y8rQY9mG8gNt_0g14nDT-4" value="Módelos&lt;div&gt;IEEE&lt;/div&gt;&lt;div&gt;CMMI&lt;/div&gt;" style="whiteSpace=wrap;html=1;rounded=0;" vertex="1" parent="1">
          <mxGeometry x="413" y="20" width="120" height="60" as="geometry" />
        </mxCell>
        <mxCell id="y8rQY9mG8gNt_0g14nDT-11" style="edgeStyle=orthogonalEdgeStyle;rounded=0;orthogonalLoop=1;jettySize=auto;html=1;entryX=0;entryY=0.5;entryDx=0;entryDy=0;flowAnimation=1;" edge="1" parent="1" source="y8rQY9mG8gNt_0g14nDT-7" target="y8rQY9mG8gNt_0g14nDT-10">
          <mxGeometry relative="1" as="geometry" />
        </mxCell>
        <mxCell id="y8rQY9mG8gNt_0g14nDT-13" style="edgeStyle=orthogonalEdgeStyle;rounded=0;orthogonalLoop=1;jettySize=auto;html=1;entryX=0;entryY=0.5;entryDx=0;entryDy=0;flowAnimation=1;" edge="1" parent="1" source="y8rQY9mG8gNt_0g14nDT-7" target="y8rQY9mG8gNt_0g14nDT-12">
          <mxGeometry relative="1" as="geometry" />
        </mxCell>
        <mxCell id="y8rQY9mG8gNt_0g14nDT-7" value="Metodología&lt;div&gt;&lt;br&gt;&lt;div&gt;Ágil&amp;nbsp;&lt;/div&gt;&lt;div&gt;Tradicional&lt;/div&gt;&lt;/div&gt;" style="whiteSpace=wrap;html=1;rounded=0;" vertex="1" parent="1">
          <mxGeometry x="413" y="110" width="120" height="60" as="geometry" />
        </mxCell>
        <mxCell id="y8rQY9mG8gNt_0g14nDT-10" value="" style="shape=image;verticalLabelPosition=bottom;labelBackgroundColor=default;verticalAlign=top;aspect=fixed;imageAspect=0;image=data:image/png,iVBORw0KGgoAAAANSUhEUgAAAjgAAAEbCAYAAADXpf7zAAAAAXNSR0IArs4c6QAAAARnQU1BAACxjwv8YQUAAAAJcEhZcwAAEnQAABJ0Ad5mH3gAAG/ZSURBVHhe7b0NcBTXmff7Z0xYlvAV3mAzwr5QkhaclDCJpeAbYJ0BmZET7JiSgsnF0civuFknF7/lMhdGr1j2Lvay8MJo5cqGZP1Ro/Bhu4xhVMLYDgweIW9h3ws1g42hDKMVKojFDA4ujJBsYyPNuef0dPf0zHT3fErA8PyqDrROzzl9+pzT5/z7fDw9gnFAEARBEARRQFjk/wmCIAiCIAoGEjgEQRAEQRQcJHAIgiAIgig4SOAQBEEQBFFwkMAhCIIgCKLgIIFDEARBEETBQQKHIAiCIIiCgwQOQRAEQRAFBwkcgiAIgiAKDhI4BEEQBEEUHCRwCIIgCIIoOEjgEARBEARRcJDAIQiCIAii4MibwBkINKF0xAiMkFwRqlpOIyKfM+YqOlselcMIV4q61k/kc0NNPwJNC6TrljYFMCD75oKaB6VNCOQjwutC/vMl7wwE0FQq6ssCNAX6Zc8syWdceaGw878wnhGCIG4GhmgEJwzvrvfRlUrhRM7i8K7D8h8EQRAEQRD5If8CxzoXtrlWwLsfh7uuyp76RLrexy5vGLA/BefyEtmXIFIwshyruxgYO4TV5WNlT2LYoPwnCOImIP8CZ0wlamvn84PD2HX4rMk01VV0Hd4PL6ywL7PjRyNlb4IgCIIgiBwZgimq8Si7/0HYU01TqdNT87FsfulQzZURBEEQBHELMiS64rbSuVhmTzFN9enHeFeannoQ80v/VvY04huEA29jT1MdisQCRckVYUHDS9gbCJsvZu7vRPueJtQVKeGq0NDSjs7+1Eugk8OOQFFdE/a0dyKr5aiRMAJ7X0VT3Sw1vmh63kQg/I38o2Qi4QD2tjRggRpGCdeK9s4r8q8yJOt8ifCgHQllMQt1TbuyT4uEXrwGeZNykWsGcaUiyzJLyY2Q/1fa0SBd/1G0dBpPJ0c6W1DFr1PU0A7pCinz/wo623dp8kw8qy1ppC/6nLcm1fU0n3WCIAgtLE9c87tYCY8OJS7mv/YVC7qXMsDK7O5TbFD+TYxB1utrZFb1/F+Yx1HCf1/CHJ6/yL+RGexhvkY7P8fj1nVWZmv0slDSRQZZX9DDnDarThjubI3M5ZwrHZe4/OyaHCoKD3tqG3NYdcJJjl/T6WHBvviLxueB7CkzGPKyRqO0SM7OGn09CXmVKh3C6YUzI5d86WWn3PW83HTCSc7OnJ5TrE/+dfqkiNdaz9yneuXfcq75matEnLMxlz/xavmLK7syS8WNlP8Xmc9ZzsMZPacC5VkuZ07fxaiXWf73nWIep9HzuphtcD2l/4ykfM6FK2MO94ks6hdBELciQyRweHsVdDO7+NvuZsGkllNpWJcyd/Ar/reRwPmc+V2L5caNN95uX0xU9AWZz+1kNukcFxyuI/ENX98R5pI7EaujmXmDcqc2GGL+bUq4qEvsSAZ7PKxeFhVxYdnXLOTfIXdOydc0FDiatMDmZG5fUA4nOjsfc6sdwmLeYXwunZEYPMXcdvlaiYJK25Ho5rEBWefL16zHs1LuXHlH49ofS09c2IR7SIlxvIOhw6zZURZNj62Z+ZXrGXaweYwr2zJLxQ2V/8qLBg9nVId6fcwpngVrI/P1psp/zfNqdTCXV8kz7XMjwnEX94xo7i0unEDk937mUspOmw6CIAgThkzgxDpnRcRoSGo09QVOTGiUsXrPWZ03TG2jr72OpuHWdmYq2nCJHUmskbbWe1iPTlsae7OPvzd9gaNtvFcyT8/Xsr+GwbPMUy834NqOJuRhDuGHJ5gnFEth9uSQL2rHbFwWId/6aCebieDSirhEkcqJ1YE0RhDyFlcOZWbKDZj/yrOo95yq6U0Y4THKfzUufZGlfXGIe0bUcjO6N/4T5YUpSVQRBEHoM3Rrey3TMX+Z3m6qCK7438HOMO+Gah9AxXijJAzg0yNetPDfwf40GpZM01kwNApTlzyJDWK9T9x1LsF/wIuw2KFV+1P8cGxiSG24BK4cw+vNb/GDpdjQ8DNM1Umexfr3eDytnWKCT3Fk7/5oWjY8iSVTR8n+GizTsKThafAG3GDd0nvY++fT2a37iSPbfOFldrQNzR1izZRxWVhty1Cbau1VAqqpAMxH7c/vQeKmY8vUH2HxIi4bEcDOAx9F14AYkL+48lFmetx4+Y/x96Cqtpwf6NVlJb1iI8D0FAv2Ys817NX4+Q8nRr01WKb+DA0blsp/abDcjfoDIf6ydQLuar174z8png2p6AiCINLEvM3KidEonR/dTXUiGNJ0zkqjWY7aqnswXvZN5ipC3UHpqGTRbBQbpdRyJ2YvmskPNNcZOIdjngA/mIlFs+/Uv0k1XDyRC2fxoWikraWYPkWnY5MYjeLZc1DCr+l992PeHZow8Fd0v3eGH5ikhRNrwLsR7JFz645yPFJfxg9OYseKWRgnLUTdg9a9AYSzWW2Zdb58gwtnu/jd8mz5wXRMSVkWx/DuyYtRP1O4iD15FF5xWDIHs4tHS77x3IXq7V1ipBGhzQtN6kse48qlzMy44fJfMAlzHn0MNlGXE3Y9Rs7/J17ZydMrbQTQy08tX+K/jv2/UhqNn1fluUkHecFxayt3L6Fh0cNYI4qEIAgiTYyayrxgkXdThXe+A/8VueW88hEOiEbTakdVxaSony6f49wJ8dmGEswrvh3GZnJGo6g42iGEL1zGF+Lgy15c/FIczERxkVHDPBLjJk2Wj2NE+i5BakfDm1A54TbNTo54962KNdHfvdeNkJnJ+YvncEL6oVlaOCNvR/E80fRfxoXLX0X9xCjBhufR7BAiR+DFlhVLUbOkAkW3ZbGjK+t8GUDfpWiHGd5SiQk6+RF141CxpoP/6gzPlr+m8ZkBHu/lS/JxruQxrlzKzIwbLv8FFoz94U91Rn6uouvAa2gJW2FfNhelKVuKq+i92Mf/N39eLeMmGQgcsTusHS0NVfK9/A2KKhajpqaGu3/AFjF6RRAEkQFDKnDUaaqwFwf8ovNJd3pqOOAdyUQzgXVjYLHOw9Pbj6MveAie3S44NLMX4R1rsLRyJmbUbcfpdLa9p8XNkS+Fy3XIf3U6eTfWud+PTt0pdqqsj6PhFzPy1lBYxk3EFPk4Bhc3gd/h4ZmVWLFFGoOTsDpc2O3xwOM5hODnR+BKb+iHIAhCYogVxihMmV4Kq7rmId3pKcF3MG3WXfz/VG+jsaks65SJ+LY4GDMBk8eIgyC6Q0ZrEWLhtKhvmCUu+K9Ji7DNXddqlJtZYZ48DbOkCM3SwlGnRXgHMDHRLhB/y55hQ/UvVmN7iF+zLwif5xW45JGd8I5GPPV6Z8L6CR2yzpfYqEKJy49revmQ4LpWlxu+xcfIZ2eex7jyUmY63HD5r6BMJ/O6JI+2KuuZ0n8RGY0Jk8fx/82f14FQN96Tj1X6/Xh+tQsdvKWwOT0I9g1K9xDavhq/qK5GdbUNM77qkUfVCIIg0mOIBY4F4yseQK1Vbjg/+SDN6SlBbOrpzMHj6DbqvSM9OH5QdAhWzJpZFF1YOnIa7q0RCyeDOHi8R7/jV8PFY5kyHT8QoyRnjuJ4t0nnli7qNIZJWjiR7uM4KDXgxZh5Z4rv+4ydgYXVy7F6+yH4nOI+01gLJMg6XxShmqIsMmYk7iibE12oa5jfEVxpXxs1ale0Fu3KVGcSeYxrKMpMcMPlfwxlOjk62npe/oxKOi8iCmPwd/f+OEUar6L7+NHo1K6GgeB/4nkxBWV9HP/0j0swI2nxNc+Wvsu4IB8TBEGkwxALHI6ySyO8D+51f8xgeop3WPfZUS9aTO9z2Nx2TqdD+Abn27ZinbxzJrbTYxIqquy8seUd/7qtaDufaHE2gv4P/oydUrgE1F0lu7Fu89s4r9tQX0ag6SFprYBq3dWQO3DfIw+apIUTOYe2zc9FF8iqCzo1nfGC5xBIMQWljl6Zkm2+xISqcVlw+o+iaUERz5cKNLR/JnuaYykqwyKbiPgwdr7xUfJ6osgneOeVfTzFqetN/uLKtsxScePlv4o6TRXCh2fex7vS9FQ6LyIKaaSx/yO8sVN8niVDtHlNEASRLixPGBq509r+kJzGBonKEBj609opsTnZNn9Itq/Ry4Le5jjrwPF2cLT2OoSBPTfzqYb++LmQn3lcDvl+0rGDw8nWaJwaLjkdWRt3yzpftDZaEspC2GDxe2LG2DKxwxIXb4IBO17GXr28NjQ0l8e4si2zVNxw+R8jZmtGOBPrxmnlP0/jtiOyhfEEY33CaZ8R1X6OqOdag5YJ9yU5HWvnBEEQOgyDwOGoDRh3upZIh+JTDTyoial9YUX2xaw/1SBcspl+szwYuk818I48Q/P12edLqk8FcGdbz3whHcN4pqT+BEFc3hh2sIL8xTU0n2q4EfNfRiu+dA3/yZjlv9nzaq1n//HiKnNjmLqOiyXPW8wttRFmn5UgCIKIMTwCR/00A2/AnT7eTCdiInAkxJvcPs1bs3DiDf0V1qa+ARsgRjo8Lo1IUN5+e5nfZZP8kjsSGTFKtFsbVgm/j/l1OhHzPOCItLS9GG+yXpim3/2WbnwKYtSoLSkd4v5fix/VyYSs80W8jR9iu9XRENmJUY42v67QTA9Rxm8lxGtwj6YCR5DHuLIss5TccPkv0Iy2mo0CpZX/2pGX2Aik8TOiM1oTl88aEZTlCBVBELcWI8Q/vDEhCIIgCIIoGIZ+kTFBEARBEMQwQwKHIAiCIIiCgwQOQRAEQRAFBwkcgiAIgiAKDhI4BEEQBEEUHCRwCIIgCIIoOEjgEARBEARRcJDAIQiCIAii4CCBQxAEQRBEwUEChyAIgiCIgoMEDkEQBEEQBQcJHIIgCIIgCg4SOARBEARBFBwkcAiCIAiCKDhI4BAEQRAEUXCQwCEIgiAIouAggUMQBEEQRMFBAocgCIIgiIKDBA5BEARBEAUHCRyCIAiCIAqOvAucSDiA1qY6FI0YgRGSm4W6pl1o77wi/yIbvkE48Db2xMXL3YIGtOwNIByRf5YzlxFoeggjSpsQGJC9bnEGAk0oVfO8CFUtp5E6u6+is+XRWDmNKEVd6yfyuaGmn5fhAum6pU0B5KMY1TygekGky0AATaWi7i9AU6Bf9iQIYjjJo8DhIqT9GVQWVaBmzQ6EZV/gJHas+SUqZy7F2vbzaXSOCUTCOPrcr1FesRhL4+LldGzBiiUVKKp8Bu3hb2TPbPkG51vX4eE1b8l/E8mE4d31PrpSFWLkLA7vOiz/QRAEQRDDT94ETuT8m1j3q/XoQBkcrv0I9g2CMQbWF4TX5YAVXmyqfALNgctyiHTgoqPtX7FklRA2djjdvli8rBdBnxtOm5ULnfX41bo3cT7rkZwr6GzlcdT8IV5AETGsc2Gby/Paux+Hu67KnvpEut7HLi/PSftTcC4vkX0JgiAIYvjIk8C5iq4Dr6GF92nW+mewcVUVZoyVox47A4tW/xtedpbzP95C8+vHuJxIk0g3DrzQykVHGeo9L2JT/cJYvBiPGQvrsenlrajn/W64ZSP+veMz+VwGSCNE/wO2mk1cnBGGjKlEbe18fnAYuw6fNRmJ43Xh8H4uZ62wL7PjRyNlb4IgCIIYRvIjcNQpiXLUPnY/pibFOgkVVXbe5XEh8uFZXEh3pOXTj/GuGAnAPCz+8VTdxFqm3o/HaoV4CuHDs59lMAV2BZ3tLWioLMd98gjRKudyKY2EHuNRdv+DPJdSTFOpdWE+ls0vzeccKEEQBEGkTX76H8vdqD8QAmN+bF74XdkzD1irsV2ajnoe1VajoYDRmDB5HP8/jDOXvshA4PTi5PaN2NIRhtWxFUdC+7D50R9ijHyWSOa20rlYZk8xTaWIUvuDmF/6t7KnEXqLx4uwoOEl7A2EzcuyvxPte5pQV6SEq0JDSzs6+9OoAUlhR6Corgl72juR1XLQSBiBva+iqW6WGl80PW8ikMvasEzTqS5s/Q1a+XX7OzsS8jbXNEUyj1PKmz1oaaiSf59JuJfQsKBIEyZaN1pNy0m8uOyKL4sUmxHExoi9rYnXSh1ONz9EmDTqUfbXJAgibdhwMHiWeerLGFcszO4+xQZl7/zwF+ZxlPC4S5jD8xfZLx14OOc/MbcvyPpkn2t+FyvhWYISF/Nfkz1vceLz5CsWdC81KcdB1utrZFb1vEnZDPYwX6Odn+Nx6zorszV6WSjpIoOsL+hhTptVJwx3tkbmcs6VjktcfhZfjDzsqW3MYdUJJzl+TaeHBfviL2pWLwZDXtZolBbJ2Vmjr0cnr8zILp08ocxVIs4vZy53I7PphuXOtp75Ql/LgdKll51y1/Oy1YlPOGs9c5/qlX8bJXXecKcTjvWdYG6HaC90fi85g7qRIpzVsY2disuzr1nIt944n2SXHE7Qy4Ieozzm6duwiTmlsrAxl19pYQS5XJMgiEwYYoEjOiMfczvljszWzPx5fmgHezysXuoIljJ38CvZNztI4CSTmCeDQTezi7/tbhZMKsqLzOcs15SFkcD5nPldi6N1ggsAp9sX66z7gszndsodAO8oXEdUASrRd4S55E7T6mhm3qDcOQ6GmH+bEi7qEgVOrK4khBWdjn+HLJqSr2lYLzRpgc2pEcsJ9R6LeSf3uXQmHbJNZ0zg6IXVdsiZvmh8zXo8K2VxU8Ycrv1qeQ2GDrNmRVRon2/1pSYxHQKeFm+zKuCsTh/3UVBEtIivkXkSw6n3kPC8a64Hq4O5vEpZ8Dw7slW+VnyexfI5/p4keD30uhzyPZczp++ifELAy9ffLKcjMT+OsG1quQsXL3CyvyZBEJkyRALnGgt5ntA85Lxh0XvjzBVtI1rvYT05Rk8CJ5mkPBk8xdx20cHqCMpeH3OKxtvayHy9ojD0BY62ka/3nNXpaLUdqvY6yggR99cVy9pwiQInJqqM6kpsxCH+3vTrheZa1pXM06MzIqLtdHUFoR7ZpzNO4OheTyMe0k4PRy1zHVHFiZVnrFNWhbBR3mjTEpev2Y3IqtfTFZPaslLqZuz6hm2Het+JdUkR8vr5EVfucQInl2sSBJEpQ7QG9CpC3UH5WBBGx5Ya2Fb+DgdzMvin5QpOb3sWT7ac5O3MSmx99iGdxc1E3rFMx/xlerupIrjifwc7xU662gdQMd6oMAbw6RGvtOMO9qfRsGSazkKwUZi65ElsEOt94q5zCf4DXl6brLDX/hQ/VHfUKWjDJXDlGF5vFjaOlmJDw89064rF+vd4PK2dYoJPcWTv/mhaNjyJJVNHyf4aLNOwpOFp8I43re31EnlJp9jBNhelSWFHYcr00uhC+jOX0JfmOg912z/mo/bn92Bs1FvFMvVHWLyIS0AEsPPAR9IuScuMehwQL1ChrajWyxuMRvHsORCh9DmDg3vbcTqdNVXqzj2OvRo//+FEyTcGrxc/XohF4jDsxQH/JX4wGjPqXxcveAi5q/XbDsudmL1opvyHhisf4cDOAD/Qz4+4co8jh2sSBJExeo9YHhiL8tWHpAdZcoMhHGl2ADtWwW5bi9bzuRvlC7c/h9+uaEHYWg93+0aDRpTIP6NROj+6m+pEMKRZTKmIj3LUVt2D8bJvMjHxW7JoNoqNaqDa0GuuM3AOxzyiY5mJRbPv1K+8Bh1E5MJZfCj6aGsppk8xqitKpxuG992PuYQxYeCv6H7vDD8wSQvHUjwbUt+PbgR7Ui09zVc6jdJkwZgJkzJcSM8F6cmjUfFQMgezi0dLvvHchertXdGOe/NC47KXFg63orWVu5YGLKpYw2VMInfgvkcelERYeMfj+N64O6MLi1vfNlkcfREn3z0mHRnWKXXDgvlGiOjiX5FGsTC6BhVrko1HDPzXMXhEGRnmh7bcU5PONQmCyByjdjm/WKyY89Sz2FpfxlutVrxwoDvF27EZQtxswvJKYVTQjsaXn8Xjdxt3p0T+sci7qcI734H/ilySylut1Y6qiklRP10+x7kT4rMNJZhXfDuMzeSMRlFxVKiEL1zGF+Lgy15c/FIczERxkX7HAh7juEmT5eMYkb5L0c40vAmVE26L37micd9SOt33uhEy+yzDxXM4If3QLC2ckbejeJ7o6S7jwuWvon4m5D2dOTOAvstixCMbZFMMyk6h24pQsaQGNTXcrdhiYHdKjML9I9r4C1F0HE6M/v4DD7MYFUV/gxFFdWja0xG/Wy7yBS5fkCpG5oidalxsLZDz9baiCiwR6atZihVbJFmXQIRXw0uQrjavGEVGFdjybUwqid5BEhlfkyCIbBgegSOw3IUHHnuYN1ppmvvX5QpOt/wW5Yq48bVgw0J9+zjEEKJMU6nD/elOTw0HXOBMNBNYxPAgvuu2HDMrV0imGKIIK+evwOPxwOML4nO/S3+KSrwQPb0dob4gfJ5X4HLwFyOF8A6sWboAM2f8Gi2nc5zu7j+KpodtqNSKLasDrt08fZ42+II98Lts8okM4QJn4hSdsbKhvCZBEHEMY0+kGR7PYP5fpf80WhuW4nvStJQDzUe2kbi5bihrOZQ1F+lOTwm+g2mz7uL/n8F73X81+RhmbCrLOmUivi0OxkzAZKkCBdEdMlrPkrj+K4pl3KRoZ1rigv+aPHVq5rpWo9zMCvPkaZglRWiWFo46lTURUyamsgs0BOnMmWwEYwT9gT9htfRdNzucnlPok9J7AttXL0d1dTWqFxbjq3Nd0VEoI8bOwMLq5Vi9/QQPKz7N0obd0mdfOOEWrHhqDzpFO2IkJkzhAuz5Z7FGiC9bIzzB3mh+hrZj9S94+qofwcIZEXm0UYumHTMbPVPLXUu21yQIIhvyow/CraiThlsfRUunccfTffxotEEzG9rVIRI+iLUPL0SNGL4VDUPH7/H0HCuJm+uGBeMrHkAt72mkaapPPkhzekoQm3o6c/A4uo2EbqQHxw8KoWLFrJlF0YWcI6fh3hphtTqIg8d79Kc51XDxWKZMxw9Ez3jmKI53p7HYNxXq1JNJWjiR7uM4KFX6Ysy8M2k5ahJ5T2fOjMQdZXOiC2YN0xTBlfa1UWN3RWvRfqUfwUNvSCMUVmcD/rH67uSFuBlPfYlPszyCX6z+E077GqMix3sUJz8VCmMyyn5yr/AxqVOfob2hQpoSKmpox5WBMzj0vBBg5XD+0ypUz9CR5QZTXyP/7l7UpCijWLlryOGaBEFkTn40wh3fx0+Sdrwk0P8R3tgpTPiXof6RctwR9U2JEDfrltdhk/TWsx6+V9frNwzE8DL+HlSJT2SE98G97o8ZTE/xDvM+u/T9MHifw+a2czr1RXxkdSvWyTt3ls2fLldU5ZMfYXjXbUVb0mL1CPo/+DN2SuESUNKL3Vi3+W2DD7OKaZWHYp2g7KuPshjWKC2cyDm0bX5O3t0jLDubrNVRyHs6c8dSVIZF4qO2/Pne+cZHyVZ6I5/gnVf28ZxItw7wIOffxuZ1u+W/NFxpR4NkufkhNKX6MK91EiZ+W1xrFIpm/xjSxI63FW98kBwucv4/8Yq08ymdUUaBtg4mkLKMLuODN1qj5Z4RJtckCCJzWF7QGr6yM+e2Ixoro/FGzzKy0BlnvMvInkb+IDs4yRjnicYmjeT0DJMNgaE/bZ2wOdk2f0i2oxNvPE44Y0N/wi6Tm/k0RuQGQ37mUY2spWMHhzPkhv4yS2fMDk6i9dwY2dVxrX2hBAN1ccbplPRo6wYvX8+pWBkKg4weV4KV5ieYJ6QkRlM34vJUYGLoMK6t0Br6E2Wxn7kUY4Sq/R/Flo24TrxBwfg8lp3Dw0LyeUF8Ge1gfsUydFx+CKcti9yuSRBEZuRJ4AjMTJdHndWxlR3RMRGvNrqJVj9V411purgGoY83lLaof5qNeXqNf+bx3syY5oli2E+cVw2oaRmKTzWIzsD4EwDCau6LWX+qQbjkTyuY5cH1+VSDcDrxDpnAEaT4VENieuKM3ek40cH7XmQO6e8EoZbyUw0GL0qpwiV8oiImUvScEC6vcbFdH/07yTCi2ScXuAj8j626n2rI7ZoEQWRCHgWOQLwtHWK7E95ErA4X2x33JhaPvsBJtIachiOBk3fM8yT2Rhpvbl8hlVVa8Ua+TzPSIZwYIXiFtakjMwYkjQQoI0G9avkYWoIVo0S7E0cRRPh9sTdxDSnrhUhL24vx38cSowi739KNL20yTCdP6BAKHIEor7cSnm9RXrxTjvukgozOaI3UFrT5o8JVFUE6n46Q8vSV2MiLNrxJW6IbTiqLQ7qW1JNHTuLrX0yQJIgwmaTwyqiTSVnkek2CINJjhPiHP2QEQRAEQRAFQ34WGRMEQRAEQdxAkMAhCIIgCKLgIIFDEARBEETBQQKHIAiCIIiCgwQOQRAEQRAFBwkcgiAIgiAKDhI4BEEQBEEUHCRwCIIgCIIoOEjgEARBEARRcJDAIQiCIAii4CCBQxAEQRBEwUEChyAIgiCIgoMEDkEQBEEQBQcJHIIgCIIgCg4SOARBEARBFBwkcAiCIAiCKDhI4BAEQRAEUXCQwCEIgiAIouAggUMQBEEQRMFBAocgCIIgiIIj7wInEg6gtakORSNGYITkZqGuaRfaO6/Iv8iGbxAOvI09cfFyt6ABLXsDCEfkn2VKJIzA3lfRVDcrFueIIixoeAl7A2FkG20hMRBoQqkmb6paTqeRL1fR2fKoJk9LUdf6iXxuqOlHoGmBdN3SpgAGZN9cUPOgtAmBfER40/AZ2hsqomVYtBbtV9J9IjTln1E4giCI/JFHgcNFSPszqCyqQM2aHQjLvsBJ7FjzS1TOXIq17eczFw1chBx97tcor1iMpXHxcjq2YMWSChRVPoP28DeyZ3pEwu/huf9uR8WSx7Bmx0nZVxDm0f4DllSUo3LtwezFU0EShnfX++hKlSeRszi867D8B3HzMglzHn0MNnEY9uKA/5LkmxK1/K2wb3DANp4GigmCGH7y1vJEzr+Jdb9ajw6UweHaj2DfIBhjYH1BeF0O3tR5sanyCTQHLssh0uEbnG/7VyxZJYSNHU63LxYv60XQ54bTZuVCZz1+te5NnE9XjETOoW3db7BKCBubE25fEH1SnNH0+txO3qhzobNpFda1naORHIF1LmxzeV579+Nw11XZU59I1/vY5eVS1P4UnMtLZF/i5sOCsT/8KWrtvNwRwM4DHyH1OGwE/R/8GTtF+WM+ls2fTvPgBEFcF/LU9lxF14HX0MLbNGv9M9i4qgozxspRj52BRav/DS87y/kfb6H59WNpNJIykW4ceKGVS40y1HtexKb6hbF4MR4zFtZj08tbUc/b33DLRvx7x2fyOXMiXT680MLFjXUlPC//C+oXzsBY+ZxI78L6f8HLnpVclJ1Ey5MvoIOG2IExlaitnc8PDmPX4bMmoo/XhcP7uZzlb+/L7PjRSNmbuDmxTMf8ZaLc+TO28x34Uz4Ll3D09Vf4i45oC36JqtLRUW+CIIhhJj8CRx2SLkftY/djalKsk1BRZeddHm8kPzyLC+nqhU8/xrvSm+A8LP7xVN3EWqbej8dqhXgK4cOzn6Ux2jKAT08e5R0wZ9FC/HjqKMk3nlGY+kA1aqUEd+HshcymvwqT8Si7/0HYU01TqXVBvL2X0tv7Tc9olFb9UnqJSGua6spHOLAzwA+M2gKCIIjhIT/Nj+Vu1B8IgTE/Ni/8ruyZB6zV2C5NHT2PaqvRUMBoTJg8jv8fxplLX6QhcEbyaJ+PTkdtr5ZEly5jJmDyGHFwEZf6bqmVpYbcVjoXy8R0hdk0lSJK7Q9ifunfyp5G6C0eT3ORd38n2vc0oa5ICVeFhpZ2dPanoZ6Two5AUV0T9rR3ol/+SUboLlYX6XkTgQzXhsWRaToHAmgqFb/7DVr5dfs7OxLyNrs0xV4iUk1TRXDF/w52incSqx1VFZOi3gRBENcD3tEPPYNnmae+jPFWj9ndp9ig7J0f/sI8jhIedwlzeP4i++WBkIc5ePYATzBP6Jrseetxze9iJSIfSlzMf+0rFnQvNSnHQdbra2RW9bxJ2Qz2MF+jnZ8TeaznrMzW6GWhpIsMsr6ghzltVp0w3Nkamcs5VzoucflZfMnxsKe2MYdVJ5zk+DWdHhbsi79ofB7InjKDIS9rNEqL5Oys0dejk1dmZJdOnlDmKhHnlzOXu5HZdMNyZ1vPfKGv5UDpoJQrD2ttZL5eg7sZ0uecIAgiM4ZY4IjOyMfcTrkjszUzf2KjnCODPR5WL3UES5k7+JXsmytfsx7PymiDbnez4C3cUid27oNBN7Mb5stF5nOWa8rCSOB8zvyuxdE6wQWA0+2LddZ9QeZzO+XOmXfkriOsL3omSt8R5pIFhdXRzLzB3qj/YIj5tynhoi5R4MTqSkJYXt4h/w5ZNCVf01DgaNICm5O5fUE5XEK9x2Lm8n8unUmHbNMZEzh6YXtZ0KOIniwEiHqvZazec1Y3rFo38vosEgRBZMcQCZxrLOR5Qm1opcZY740zV9Q3Rt6Y13tYT56ij3Uwxo35rUJS5z54irntoqPT6cR6fcwp8k19y9cXOKnzVyMw466jGUnQFcvacIkCJyaqjOpKbDQm/t70BY7mWtaVzNOjMyKiqZ/pC+Xs0xkncHSvp4zAZZIehVRhY+fz+SwSBEFkyxAtAbyKUHdQPhYI2zI1sK38HQ7mZPBPyxWc3vYsnpR3Q2199qH8LGjsP4lta/9Z3RH27JJptFBWi7qrJnE3VWz9hbX2AVQY2j4ZwKdHvFL+wv40GnTzdxSmLnkSG6TtydrrXIL/gJfXJivstT/FD9UddQracAlcOYbXm9/iB0uxoeFnunXFYv17PJ7WTjHBpziyd380LRuexBK9xeqWaVjS8DTs4jiN7fUSeUmn2ME2F6VJYUdhyvTS6LqzM5fQl8ZypRijUTpfLDLn6N1Lyo0GBEEQw8sQNUNjUb76UHQhr3CDIRxpdgA7VsFuW4vW87nuShJGBZ/Db1e0IGyth7t9I6p1d0NlSOQ82jf+31ix4ySsjm1o/90SaqiTUDq6ME4EQ5rFror44B1c1T0YL/smExO/JYtmo9gofy13YvaimfxAc52BczjmETt0ZmLR7Dv1K68aLp7IhbP4UFr8WorpU4zqymgUz56DEn5N77sfcwljwsBf0f3eGX5gkhaOpXg2FpWIo24Ee1IvYc5POo3SZMGYCZMgrZ3PAktpJZ6oL+NHycJKtX1Ei4sJgrhBGJ7u22LFnKeexVbROIZb8cKB7hRvx2YIcbMJyyuFUUE7Gl9+Fo/fbdydpo0QN+vqUbnJC9jW4+X/9X/g7qQRAkJgkXdTxdlFUbYHp+zgPse5E+KzDSWYV3w7jM3kjEZRcVSohC9cxhfi4MteXPxSHMxEcZGRfZWRGDdpsnwcI9J3CUKOILwJlRNuk3cVJbtvVayJ/u69boTMNs9dPIcT0g/N0sIZeTuK5wmFcxkXLn8V9TMh7+nMJ5a78MBjD4OXfIKpgM/Q4f6jZPvItmoJ5pDlYoIgbgCGryUybBwz4QpOt/wW5Yq48bVgw0J9+zgZ0X8SLf/9QVXc+F5txEJrHkaEChVlmkq1i5Lu9NRwwAXORBpBGBosGF/xQNQ+lHaaSrV9Mx+1P78nZjSTIAjiOjKMPZFmeDzj+X9O/2m0NizF96RpKQeaj2zLg7iJoL+zFQ0P2+Vpqa04QuImDZS1HIpdlHSnpwTfwbRZd/H/z+C97r+afAwzNpVlnTIR3xYHqm2iILpDRutZEtd/RbGMmwRppqjEBf81eerUzHWtRrmZFebJ0zBLitAsLRx1KmsipkxMZRdoCNKZb8bfi0dXLeYHyjSVxvaNZPuILBcTBHFjkB+BE25FnTR0/ihaOo07nu7jR6PD6vOKUZRBoxwJH8TahxeiZosYYWmEp+P3eHqONcfEi6muf8HDM2uwpUN8ksqDjj/8FnNI3KRB7E1emqb65IM0p6cEsamnMwePo9tI6EZ6cPygECpWzJpZFB0VGDkN99YIg3NBHDzeoz/NqYaLxzJlOn4gRh7OHMXxbhNBki7q1JNJWjiR7uM4KFX6Ysy8M/XYRt7TmXcm4oc/r5bWYEVHYmPi1tnwc8y4noN3BEEQGvLTHN3xffwkacdLAv0f4Y2dYpdFGeofKccdUd+UCHGzbnkdNnXwV0Rp+mg9qmfkuuZGu47HyjXTdry6qVrznSsiJePvQZWwbhveB/e6P2YwPTUSd9xnj5r+9z6HzbofMxUfWd2KdUkfbFQ++cE713Vb0Za0WF37occElPRiN9Ztftvgw6yXEWh6SFrjUtTQnuKbaXfgvkceNEkLR3zUdfNz0c+CpDu6kfd05h9lDZY0TeX//zIQtwRBEMMIywuDrM/fLBsRszPntiMaC7TxRs+sjm3sVLr2cLR2RIxsjWRBnCE1stlhirEVX41NGsmVM6fvonxOYQgM/WnrhM3JtvlDsh2dXhb0NsdZ/zU29CfsMrmZTzWCx8+F/MzjcujY3jHJgyE39JdZOmN2cGz8enG5pmJcnpmg2ACysrm2udL/SeVEEARxncmTwBFoLaXqO6tjKzuiYyJebXQTGuaYZdQ0ncPDQnJY3vvwTtQW9Y9rzDUGy9JyiZ2zUbyFiWmHqBj2E+d1TfgPxacaRCdv/HkEYb33xaw/1SBc8qcVzPLg+nyqQTideIdN4HC0ZZ8otAiCIG4A8jgnMx4zqjdgX/AQdrscEDMQClaHC7t9QXRuX5nBGhfNV7/zykWcfPeYfEzkhDqdwss4091TlqlYuHEfQv59cDsl83EyZXC4XkGbPwDfxkWw6kRpsS7CRl8Afo8LXATI2OF0+9DxhxW4d7JRHbNg7N112N4ZhG+3NqxAhN8Hf2gfNmaweF1NS9uLcNo0EVodcO1+K+P4ouQ/nXlHU/a0uJggiBuREULlyMcEQRAEQRAFwXV7ASQIgiAIghgqSOAQBEEQBFFwkMAhCIIgCKLgIIFDEARBEETBQQKHIAiCIIiCgwQOQRAEQRAFBwkcgiAIgiAKDhI4BEEQBEEUHCRwCIIgCIIoOEjgEARBEARRcJDAIQiCIAii4CCBQxAEQRBEwUEChyAIgiCIgoMEDkEQBEEQBQcJHIIgCIIgCg4SOARBEARBFBwkcAiCIAiCKDhI4BAEQRAEUXCQwCEIgiAIouAggUMQBEEQRMFBAocgCIIgiIIj7wInEg6gtakORSNGYITkZqGuaRfaO6/Iv8iGbxAOvI09cfFyt6ABLXsDCEfkn2WMiLcVTXWzYnEW1aFpTwc6+7OOtKAYCDShVM3zIlS1nEbqnLmKzpZHY3k6ohR1rZ/I54aafgSaFkjXLW0KYED2zQU1D0qbEMhHhKakSj+vsx+czKHOXw/00zy8+UoQxK1GHgUOb8Tan0FlUQVq1uxAWPYFTmLHml+icuZSrG0/n0bnmEAkjKPP/RrlFYuxNC5eTscWrFhSgaLKZ9Ae/kb2TJPIebSvfRhFFTVYs+Ok7MkJ78CapQsw8+F/yTzOgicM76730ZWqECNncXjXYfkPIm/0n0ZrA6+zS/cjdLMInJsxzQRBFAR5EziR829i3a/WowNlcLj2I9g3CMYYWF8QXpcDVnixqfIJNAcuyyHS4Rucb/tXLFklhI0dTrcvFi/rRdDnhtNm5UJnPX617k2cT7sBFfFuwq82eQGrAy5vEH1SnIPoC+6Hy1EmxVm5/A8I0EhOFOtc2ObyvPbux+Guq7KnPpGu97HLy6Wo/Sk4l5fIvkR6jEX56kNSHe9aXY6Rsq9E38fYu4XX2ZsJkzSPLF+NLvHcda1GedyNEgRB5E6eBM5VdB14DS28T7PWP4ONq6owY6wc9dgZWLT63/Cys5z/8RaaXz+GtCerIt048EIrFzdlqPe8iE31C2PxYjxmLKzHppe3op73u+GWjfj3js/kcynQxrv1WaxaNIN3KwILT24VVv/+d3DyONHxCl4/ekk6c8szphK1tfP5wWHsOnzWZCSO14XD+7mctcK+zI4fUcdFEARBXAfyI3DUKYly1D52P6YmxToJFVV23uVxIfLhWVxId1Dk04/xrhgJwDws/vFU3cRapt6Px2qFeArhw7OfpTUFpo4wWB/GYw/clRzv+HtQlWGchc94lN3/IOyppqnUujAfy+aX5ktBEwRBEERG5Kf/sdyN+gMhMObH5oXflT3zgLUa26Wpo+dRbTUaChiNCZPH8f/DOHPpi7TEiGVGPQ6IeEMbsXA8dcHpclvpXCyzp5imUkSp/UHML/1b2dMIvcXjRVjQ8BL2BsLmZdnfifY9TagrUsJVoaGlPb3F4UlhR6Corgl72jvRL/8kIyJhBPa+Gr9YXUrPmwhkvI5Lb5HxJ2itK8WIohrsEH+eWYOKb4lrLEBTICHFmd7bQABNpfx3YqHvN/w+tjdggXIPC56Lm6IVGwj2tr6EhgVFatzR3+kt9k+d5uRFxp+hvaGC/ybFYvbIabRU8TQUrUX7lfhfSWlMuP/cNyMQBHFTwoaDwbPMU1/GuGJhdvcpNih754e/MI+jhMddwhyev8h+uTHY42H1VvA4lzJ38CvZ99bkmt/FSng1QYmL+a99xYLupSblOMh6fY3Mqp43KZvBHuZrtPNzIp/1nJXZGr0slHSRQdYX9DCnzaoThjtbI3M550rHJS4/uyaHisLDntrGHFLZ6jl+TaeHBfviLxqfB7KnzGDIyxqN0iI5O2v09ejklRF9zO+ySWFj6VfyMTFuG3P5+6RfZHtv/OaYq4SfL3mKuTYsjg9jd7Og9POvWci3ntm053Sc1bGNnVLjT53m5HxV6g/3U6+dzGDQzez8N1anj/XKfmml0bae+UJfy78nCKLQGWKBIzojH3M75Y7M1sz8iQ1sjuRXjPSyoM8td568Q3Ad4d3NrU1iJ6R0Lvod0EXmc5ZrysJI4HzOO3GlM7Uzp9sX63j7gszndsodlU4Z9B1hLllQWB3NzBuUu7jBEPNvU8JFXaLAidWVhLCic/TvMCx3Q4GjSQtsTub2BeVwCfUei3mn/rl0JjV6Akcm5GEOvXRwsr03VeBI6SxjDveJ6Hmen8eOhSRhFoubn3ftjxdJvLy8LkdUlKCcOX0X5RMyJmnWzddeH3OaPs9KHdNei+e3vzlWZ5xu5lPvX/tM8/ND0AYRBHFjMkQC5xpv156INihqo6Pz9pgr6sgQb9TrPawn6+gT3zZ5p+s5Fd8R3KIkdUKDp5jbLjoLnQ5I6ZysjczXKwpDX+BoO8x6z1mpE43na9bjWSl3mtrraN7wdTsqbbhEgRATVUZ1JTYaE39v+gJHcy3rSubp0RkZ0NRPsxGJeLIRONnfm1bg6IdVRu1MnjG1TmQmyvTzVREwBqOESh3T5mca7UCszg3FKDJBEDciQ7QA5SpC3UH5WBBGx5Ya2Fb+DgdzMvin5QpOb3sWT7ac5G3WSmx99iGdxc1pMvBXdL93Rv5D4MWWmqVY2XSADP4lYpmO+cv0dlNFcMX/DnaKtdu1D6DCcG3TAD494pV23MH+NBqWTNNZCDYKU5c8iQ1ivU/cdS7Bf8DLa5MV9tqf4ofqjjoFbbgErhzD681v8YOl2NDwM926YrH+PR5Pa6eY4FMc2bs/mpYNT2LJ1FGyvwbLNCxpeBp2cZzG9vqsycu9WTFr3vdhTQo7GjPqXxcvQgi5q/WfMcudmL1opvxHrigbEvQWsyt1TOzQm4tSJS2fBrBXtANm9z/1Z2jYsJQfpWnLiSCImx695ioPxGx5SG4whCPN/D1uxyrYbWvRej5XA3rCqOBz+O2KFoSt9XC3b0S1XgeTLiPLsbpLTit3g6HDkJK75kHYnmrLwL7OrcBolM6P7qY6EQxpFq4q4qMctVX3YLzsm0xM/JYsmo1ioxqodpqa6wycwzFPgB/MxKLZd+pXXoPONnLhLD4UospaiulTjOrKaBTPnoMS0Qm++zGXMCaootgkLRxL8WwsKhFH3Qj26C7zzZn83FsRfjD9u2k3CNEFx61obd2DloYaVKzpkM/kigXj5yzBKmHfKlEURj7BO6/s43cgduhNV9M6EOrGe+KgZA5mF4+W/JJR7p9zogs99OJCEAVPuu1ZblismPPUs9haX8b7q1a8cKA7xduxGULcbMLySmFU0I7Gl5/F43cbd6fZYLHOw1Mbn5Ht67yGA0P15n2TYpF3U4V3vgO/sovlykc4sJOLD6sdVRWTon66fI5zJ8RnG0owr/j2eEN2cYxGUXFUqIQvXMYX4uDLXlz8UhzMRHGRUUc2EuMmTZaPY0T6LkEaowtvQuWE22I7bBLctyrWRH/3XjdCZp8PuHgOJ6QfmqWFM/J2FM8T3eplXLj8VdQvz+Tn3sZh8gST+xC7s1piO6xuK6rAkpoa1NQsxYp8Gx8cew9+rjPaFOny4QUxUiPt0FPSOsCLoit6X/OKUWRid2lkUTHmiYPwJVz+ggQOQRQ6wyNwBJa78MBjDxsMPafLFZxu+S3KFXHja8GGhfr2cXIlZl8nnemKWwxlmirsxQG/MISY7vTUcMAFzkQzgUVkTP9RND1sQ+WKLfy5kxEWwHd74PG0wRfsgd9lk0/kg9gooXfdDnRIIloxIFkOZ8PPMeN6VjGCIG4KhrGZsGDMhEkYIw7PXEJfpopB+qbNUnxPmpZyoPnItiETN1Eyt69z6zAKU6aXcrEawM4DH3HZme70lOA7mDbrLv7/GbzX/VeTj2HGprKsUybi2+JgzARMlipQEN0ho1G1xPVfUSzjJkWnJ0pc8F+LTUcaulSfD5g8DbOkCM3SwlGnsiZiysRUdoGyI+/3FsdlBJ5/Fms6uHq1NcIT7I3GEdqO1b+oRnX1I1g4IyKPyuUPZZRQFdGKAcmkEcKRvChKo/efYtRNncqyTsLEb5NCIohCJz9PebgVddLQ9aNo6TTueLqPH01rKDmRSPgg1j68EDViKFw0sh2/x9NzrFkmfoAn9zfSMPuIqhZ0GimXSA+OHxQdZaqplFsRC8ZXPIBa0f+IaapPPkhzekoQm3o6c/A4ulPmvxWzZhZFP6UxchrurRGjakEcPN6jLzrVcPFYpkzHD3h6ceYojnfnYcpRnXoySQsn0n0cB6VKX4yZd0Y/CJJv8n5vWgbO4NDzYgFzOZz/tArVM3Tka+QLXL4gzR3mD3Uxe1REX5atj+uNEKpTT6b3r2l/ZpXizqQF6gRBFBr5ecrv+D5+krTjJYH+j/DGTmHCvwz1j5TjjqhvSoS4Wbe8DpukN8j18L26Xr+RTZuRuKNsToqdLRH0f/Bn7JQ+5/AgHrkv3dTeQiifswjvg3vdHzOYnuL5f59dWt8E73PY3HZOp76Ij6FuxTrpMx3aBaWaHTbrtqItabG6ptwSUT+/sRvrNr9tsHD8MgJND0nit6ihPcU30+7AfY88aJIWTuQc2jY/B2mFSty6kRz58hJ6v9TcQN7vLRO0ZWVCYppTokxT8Sr24Um0vxudntIdIbyjHI+I9X0m9x85/zY2r9vNjxJ2YBEEUbiwvKA1tGVnzm1HNBZo442exVs7TYHWjoiRrZGs0BiasznZNn/UoFkUrWEwjeGzWxRDI3c8x1SbNJLTMfI2FIb+tHUirux4uXmb4yz5Ghv6SzQGx8+F/MyjGqxLxw4O53oZ+tOJL9t7i9nB0VpF1qLYpeG/sTUyj2G8snN4WEg+L2GSZuO6JaOxryM5Q1tCZOiPIIhk8iRwBLwh8TTGWZJNdFbHVnZEx1S62tAlNLKq1dx0XVzjGusodBvQvlPMo3ZAeo6Lm+bDOp8KSBFvgWHaCalWZ7lTjftpMRI4nKw/1SA6VuPPIwgrvi9m/akG4ZI/rWCWB8PzqQaZxA4/Ll+zu7fUAofHrIonPScExWtclNZH/04UISZpTilw4gw3pjLQR59qIAginjwO1I7HjOoN2Bc8hN0uB3ijpGJ1uLDbF0Tn9pWYY03XXs0APj15NDq8PxSMvRvVm3cj6HsNLocY3lYog8P1GnzB97D96Xk6hs8IFXVqhJdxprunLFOxcOM+hPz74HZKE4YyIv9fQZs/AN/GRbr5b7EuwkZfAH6PC7xDl7HD6fah4w8rcO9kozpm4cVeh+2dQfh2a8MKRPh98If2YWMGi9fVtLS9CKew3aIg7TJ6K+P4TLHMwKO//5Omvn6JC5eVBfD5vzcFy9RqvBTwwxP3XGvKafMy2KoWy9OOCdO+pmlOxShMfaBaWusVP1WpxyhYF/4zfCE/2txOcKGjIrU/bX6EfP+MhWm3PwRB3OyMECpHPiYIgiAIgigI8vJiSRAEQRAEcSNBAocgCIIgiIKDBA5BEARBEAUHCRyCIAiCIAoOEjgEQRAEQRQcJHAIgiAIgig4SOAQBEEQBFFwkMAhCIIgCKLgIIFDEARBEETBQQKHIAiCIIiCgwQOQRAEQRAFBwkcgiAIgiAKDhI4BEEQBEEUHCRwCIIgCIIoOEjgEARBEARRcJDAIQiCIAii4CCBQxAEQRBEwUEChyAIgiCIgoMEDkEQBEEQBQcJHIIgCIIgCo68C5xIOIDWpjoUjRiBEZKbhbqmXWjvvCL/Ihu+QTjwNvbExcvdgga07A0gHJF/lg/6j6JpQRFGlDYhMCD73cIMBJpQquZ5EapaTiN1dl9FZ8ujsXIaUYq61k/kc0NNPwJNC6TrljYFkI8iVPPgRqkTAwE0lYp8XYCmQL/seT3Jf57faujXsWHO1xuuXhGp4X3jByfz2AcW1rOcR4HDM7r9GVQWVaBmzQ6EZV/gJHas+SUqZy7F2vbzaXSOCUTCOPrcr1FesRhL4+LldGzBiiUVKKp8Bu3hb2TPXLiMwPPPYk1H3FUIlTC8u95HV6pCjJzF4V2H5T8IgiCIvNN/Gq0ND6No6X6E8vmSX0DkTeBEzr+Jdb9ajw6UweHaj2DfIBhjYH1BeF0OWOHFpson0By4LIdIh29wvu1fsWSVEDZ2ON2+WLysF0GfG06blQud9fjVujdxPqdCjqA/8CesXvOW/DcRh3UubHN5Xnv343DXVdlTn0jX+9jl5SLR/hScy0tkX4IgbmhGlmN1l2hbD2F1+VjZk7hh6fsYe7d45T8IPfIkcK6i68BraOF9mrX+GWxcVYUZY+Wox87AotX/hped5fyPt9D8+jGkPVkV6caBF1q5uClDvedFbKpfGIsX4zFjYT02vbwV9bzfDbdsxL93fCafy4J+P55f7eICjdBlTCVqa+fzg8PYdfisyUgcrwuH93M5a4V9mR0/Gil7EwRBEMQwkh+Bo05JlKP2sfsxNSnWSaiosvMujwuRD8/iQrojLZ9+jHfFSADmYfGPp+om1jL1fjxWK8RTCB+e/SzzKTAJZWrqXrg8/wGH7EtoGY+y+x+EPdU0lVoX5mPZ/NJ8zoESBEEQRNrkp/+x3I36AyEw5sfmhd+VPfOAtRrbpemo51FtNRoKGI0Jk8fx/8M4c+mLLASOMjV1DDbX/4Pf/Ph22Z9I5LbSuVhmTzFNpYhS+4OYX/q3sqcReovHi7Cg4SXsDYTNy7K/E+17mlBXpISrQkNLOzr706gBSWFHoKiuCXvaO5HV0spIGIG9r6KpbpYaXzQ9byKQ9dowXi87O+LzRiyqTyuNOmHzsdh/2PNc1I830dJQpYaRnMiH1g7j60rlsSc5nEmZKIt8xcLKb8JHsV0Ny+tj01GeRmXxpViAe4mnaycaxGYE6TcPcT/t1HsO9Toj8nwdg0XG6gLoOjGafgWd7bvi63o6mz2Syt8onZnkc+b1PP5eRP61au5FpKlFEzbxXhPP65BpPVfz/Ddo5fUy+X706uwnaK0rxYiiGuwQf55Zg4pvid8mLw4Xm372tr6kyUPZDcUGnRsRNhwMnmWe+jLGFQuzu0+xQdk7P/yFeRwlPO4S5vD8RfbLgL4jzGWzMtiamb+PpyzkYQ6eLShxMf81+Te3MNf8Llai5sdXLOhealKOg6zX18is6nmTshnsYb5GOz/H49Z1VmZr9LJQ0kUGWV/Qw5yizPTC2RqZyzlXOi5x+Vl8EfKwp7Yxh1UnnOT4NZ0eFhT1QEN8HsieMoMhL2s0Sovk7KzR16OTV2b0sqCnkdl04+Np3LCJOUvEsY25/H1yGIVedspdz8sgMZzi7MzpOcUSQ5kz/Hme+j64s61nvtDX8u+jpC4P7qz1zH2qVw4RRSnjEucmtiEuvFKX+5jfZeN/z2VOV2LZLGXu4FfRiLKs1/p1TLmmTr5m/fyYcM3PXDr1Sk3b8k3MbXhNo+ulKv8y5nCf0NTHNPM5y3qu3ovjReY1Cm9dyTw9F43jl87H17us67ma58uZy230zHMXV9eVdjXxd9py+5qFfOuN45Od1bGNnYpLk0mduwkZYoEjGkYfczvlh0IREXlksMfD6qVKpa386fI5L8zFPOxiXjE+j3qRwIkjseEdDLqZXfxtd7NgUlFeZD5nuaYsjASOku+i3HhD5PbFHvy+IPO5nfKDyRsF15H4RkoRpPy81dHMvEG5oxoMMf82JVzUJT6gsbqSEFY0Bv4dcgeefE39zoejSQtsTub2BeVwCfVeW79SwsP6m+X74I2/a7+aN4OhI2ybGqdwiQLna9bjWSk3yvFh4/Mnk/RwrkOeq/UsqaMSeauIrQShrb5IJV5LwEWjt1ntgKxOH/eJoZaxcBoBNBg6wY5JHUus4Y/Gr3QM/D6OnZA79uzrtX4dM+pscnh+zEglcCSXUK/6TjGPWieT22DD8ud150izQ66r2vqYTj5nX8/j74Xn3bYjcpzx9WqubS6P3+h8cv3Jtp7H8lwvrPZFR+el0qSviqUnIX8EvI54XUrelzOn76J8QkACJw2u8bx/QsqkqOMFq/uWliPaBq3ew3oyij7WkcSFJYETR1LDO3iKue3iYdURlL0+5hQPlbWR+XpFhuoLHO3DV+85G//QSmgbMO11lBEi7q8rlrXhjDsFo7oSe/uPvzf9zkdzLd03Oo6mfuoLQj0UkWjQOWnjTBQ4qhAxzlf1rS7t9FyPPNe0Hw4PC8m+qVBFkVF5MGUEkv8m4fmOdXxGeafpeA3iz75eG9Ux/c4ml+uYklLgGIzcqm1C4nlNfuvVHW37rQqG1PmcSz03vxdNenXj1tTLuHizb1tieZ6c1iiaNCWeN+yrYmEM+0W1zBKf2cISOEO0BvQqQt1B+VgQRseWGthW/g4HczL4p+UKTm97Fk+2nOR1dSW2PvuQzuJmE5RdU9mEvZWxTMf8ZXq7qSK44n8HO8VOutoHUDHeKEMH8OkRr7TjDvan0bBkms5CsFGYuuRJbBDrfeKucwn+A15em/i7Ve1P8UN1R52CNlwCV47h9WZhAmApNjT8TLe8Lda/x+Np7RQTfIoje/dH07LhSSyZOkr212CZhiUNT4N3umltr5e48hEO7Azwg/mo/fk9SNqsq40zDp7/R9vQLGw4meSr1bYMtanWUcVxnfP84Fv48+n02gzLjHocEC9toa2o1isPjEbx7DngHZwJ38O8sjvMFyfOuhdl1sT4c6nXmTBc19FDbByYnnw9y3cx/QdF/CBhHaS64cCg7lim4seL50mH4Z3vwH8lIZW6+Zyveq53L9r6obexZSQmTyuNnj9zCX1KcvPStvA8WjYXpUlhR2HK9FJ+lqO9pimjMaP+dTF4gZC7Wr9vs9yJ2Ytmyn8ULnq3ngfGonz1ISmDJTcYwpFmrjV3rILdthat53M1yvcNwu3P4bcrWhC21sPdvtGgQTNC2TX131C/dY1+50QYMBql86O7qU4EQ5qFc0pHWI7aqnswXvZNJiZ+SxbNRrFRDVQfQM11Bs7hmEd0/jOxaPad+pXX4MGNXDiLD0WnYC3F9ClG5a00cGF43/2YSxgTBv6K7vfO8AOTtHAsxbOxSGoRuxHs0V1mGMfAfx2DR6SzZA5mF4+OeiYQi1PLN7hwtounnN/iD6ZjSsp8PYZ3T16M+plxXfJ8JO64zy6Zf0C4BSu+N0FeWNya+eJZacFxK1p52NaWBiyqWANRaoaYpjWKfv7mUK8zYriuo4NhnVQ2eiSg7oI1qjsjYa1+PtpHhDZiYcJLkX4+56memzxfEiWlmDY5PRsX+WlbjPLIgjETJmGM/FcuRBcci2dBLMCvQcWawjeKYlQ98ovFijlPPYut9WX8eWvFCwe6c3ijEOJmE5ZXCqOCdjS+/Cwev9u4O00mZtBP2Ox5VvcNgDDDIu+minvrUkYerHZUVUyK+unyOc6dEJ9tKMG84tt5E2fEaBQVRzvN8IXL+EIcfNmLi1+Kg5koLjJqnEZi3KTJ8nGMSN+laMcW3oTKCbfF7yjQuG8pHeB73QiZ2Sm/eA4npB+apYUz8nYUzxNq5DIuXP4q6mdIhN/iJUi3OK8YRUaZY/k2JpVI73QaBtB3KdqQh7dUYoLOvUXdOLlhO8Nv8a+pTbFfpzy3TH0IG9q2wqHcprBaXlODJRVFuM10p4zY+dIS2zVyWxEqltSghoetWbEltZ2rMZMwYYx5izBm8gSdDieHep0Rw3Wd3In08TovH2eDfj4PUT3Pgby3LflC7Ojion6BfP3biiqwRDwHNUux4hYxEDh8fbvlLjzw2MPg3WJ65v51uYLTLb9FuSJufC3YsFDfPo4hNDWVO8o0VdiLA/5L3CPd6anhgHe2E80EVgHABc7EKfl4p8sXQ5Hno2CdsxLbQ8JieRt2S9bQFZTPv8xDXctJzejEZQSalmNm5QpsUT+3IiyrvwKPxwOPL4jP/S4uDQiiwBHfVHzYhkqtqLc64NrNnwNPG3zBHvhdNvlE4TKMPZFmqC3tuUQN0nc3luJ70rSUA81HtmUubjgDwf/E86LxC/8BNXf+jaRs41watgUIZV44gJ0HPuKyM93pKcF3MG3WXfz/VG9WsaF465SJ+LY4GDMBk6UKFER3yGj9SOL6ryiWcZOiHVuJC/5r8tSpmetajXKzEerJ0zBLitAsLRx1KmsipkxMZRdI84yYveWpcWqJjaKUuPy4pndPCa5rdbnJCIDMdc9zYbH8Efxi9XaE2CD6gofg2e2SR3a40FnxLF7vFOmKjcyCv/w4PafQJ8V7AttXL0d1dTWqFxbjq3Nd0bfovJNDvc6I4bpO7ljG8TovH+ePIarnOZD3tiVnNN9UtDXCE+yNXje0Hat/wZ+D6kewcEZEHgksbPIjcMKtqJMEwqNokRobPa6i+/jRaONiNvyuQyR8EGsfXogaMawmCqzj93h6jnU41RkRhwXjKx5ALe9kpGmqTz5Ic3pKEBs6P3PwOLqNhG6kB8cPigbailkzi6KLbUdOw701wmp1EAeP9+hPc6rh4rFMmY4fiE7xzFEc7zYRJOmiTj2ZpIUT6T6Og1KlL8bMO1N/32fk392LmhTpjMWpJbYY0TRfM+VGynNe78bOsKH6F6ux/bQPThG3usbiSwQPvSG9rVqdDfjH6ruTF2iL6Y3LYsRxKMihXmfEcF0nD9zxffxEWuhsUneutKNBMopXgYb2dD61M0T1PAfyX89zZOAMDj0vhH45nP+0CtUzdF45I1/g8gVp7rmgyY9GUCuyyYr9/o/wxk6xor4M9Y+U446ob0qEuFm3vA6bJDW6Hr5X1+sXWJqMLF+NrkRFrXUhT/RTDaoapw/P6TL+HlSJT2SE98G97o8ZTE9pFpB6n8PmtnM69UV8ZHUr1kkLFLW7HZRPfoThXbcVbUmL1flb/Ad/xk4pXAJKerEb6za/bfBhVjHF8ZA0klfU0A7zvTt34L5HHjRJCydyDm2bn4M02y1ZdjZZq6OQMp2X8cEbrdE444iJTuN85Yiha2l9SrodyvXI88/Q3lDB/YpkK8JmpDMyFiVy/m1sXrdb/ivf5FKvM2G4rpMHLFMwe9G9/IDXnZ1/xgdJlqd5Ot9pldqO9F6OBENVz3Mg721Lhnx5Cb1f6l7UAG39KHB4p54HtMbJtMaRBMJAUszoWbLlRBO0Nj8MbVvkGbKDE4e+fQ6Bxj6K5BINRgmGwNCftk7YnGybPyTbqog35CZcoh2HmP0QYZfJzXwaQ3CDIT/zqMav0rFRwhkSQ3+J6dzB/IoF0zgDXcKZGfpLyFdhG8TvYS5HpnZ5OMOe5wntSdx9iHAag4eqfRVtfeRhtMYBhfE3jyvByuwTzBOKpdS4niukYx8k+3qtf32ja+bw/JiRyg5OFnkTK3/R9icYsVPrjtYmTTr5nH09T3Uv2Z7Ptm0xynMthmlS+qqk9kWxpcXP2RqZxzAtsouzNVVYdnDyJHAEWquL+s7q2MqOJJhWF6gFmFDIMWumaTqDgjJ+MHVIKXCyjPcmxfSBVwz7ifOqcT8tQ/GpBvGQGpvjF43oi1l/NkC45E8rmOVB6k8DZPOpBo2hsiRXxhz/sTWHTzVwp/OJg1QMd56ndR+Jn1yIM4Ko40Rj73tR7hTSFLEqaTb8hfyphqzyJlX5J6YzzXzOsp6nupfsz2dZz3MROBpjfVEXa2e1wjLZCRH2GhfC9dG/40Rguvl/c5DHkcvxmFG9AfuChxJ2PPDsdLiw2xdE5/aVmJNkuMmIAXx68qjOUDxxw6AOzfIyznT3lGUqFm7ch5B/H9xOrdm66K6XNn8Avo2LYNWJ0mJdhI2+APhbeWwbsVhY6vah4w8rcO9kozpmwdi767C9MwifulBVQYTfB39oHzZmsHhdTUvbi3DaNBFKOxbeyji+KKNgXfjP8IX84G9bsWfJ5oTb58Ef/s//HcmbshXG4+76l9Cp8xxK4dv8CPn+GQvTfg6jDH+ei/v4DwT8byXfh5S3hxDsfAn1WhMRlmmofsmbkEa5/ZHueyOqbXY8IsxV5NUAnoYc6nVGDNd1ciZa/n8K+NGWUP7RfqED+7JK59DU8+zJf9uSEssMPPr7P8HlEPVZ8CUuXI4aWrRMrcZLPM/j2g9t3di8DLaqxfJUZ7pGP28+RgiVIx8TBEEQBEEUBNdd3xMEQRAEQeQbEjgEQRAEQRQcJHAIgiAIgig4SOAQBEEQBFFwkMAhCIIgCKLgIIFDEARBEETBQQKHIAiCIIiCgwQOQRAEQRAFBwkcgiAIgiAKDhI4BEEQBEEUHCRwCIIgCIIoOEjgEARBEARRcJDAIQiCIAii4CCBQxAEQRBEwUEChyAIgiCIgoMEDkEQBEEQBQcJHIIgCIIgCg4SOARBEARBFBwkcAiCIAiCKDhI4BAEQRAEUXDkXeBEwgG0NtWhaMQIjJDcLNQ17UJ75xX5F9nwDcKBt7EnLl7uFjSgZW8A4Yj8s4yI4Er72vj4dFxpUwADcohbkYFAE0rV/ChCVctpnnOpuIrOlkc1+ViKutZP5HNDTT8CTQuk6+ar7NQ8KG1C4FauDDc6AwE0lYr6tgBNgX7Zc4i5HtckCCIt8ihwuAhpfwaVRRWoWbMDYdkXOIkda36JyplLsbb9fBqdYwKRMI4+92uUVyzG0rh4OR1bsGJJBYoqn0F7+BvZM12+wYWzXfHxESkIw7vrfXSlKsTIWRzedVj+gyAIgiCGn7wJnMj5N7HuV+vRgTI4XPsR7BsEYwysLwivywErvNhU+QSaA5flEOnwDc63/SuWrBLCxg6n2xeLl/Ui6HPDabNyobMev1r3Js5npJ760RPs5v/b4PL3yXEmu67V5RgZDXBrY50L21ye1979ONx1VfbUJ9L1PnZ5uXS0PwXn8hLZlyCGmJHlWN0lnttDWF0+VvYkCOJWJU8C5yq6DryGFt6nWeufwcZVVZgxVo567AwsWv1veNlZzv94C82vH0Pak1WRbhx4oZWLmzLUe17EpvqFsXgxHjMW1mPTy1tRz/vdcMtG/HvHZ/K5NIh8hrMfhniCf4x7/26M7EkYMqYStbXz+cFh7Dp81mQkjteFw/u5nLXCvsyOH5E6JAiCIK4D+RE46pREOWofux9Tk2KdhIoqO+/yuBD58CwupDvS8unHeFeMBGAeFv94qm5iLVPvx2O1QjyF8OHZz9KfAlPiXlSB743PTzYUNuNRdv+DsKeaplLrwnwsm1+azzlQgiAIgkib/PQ/lrtRfyAExvzYvPC7smcesFZjuzRV9DyqrUZDAaMxYfI4/n8YZy59kbbAGQh14z0xyvCT7+MO2Y8w57bSuVhmTzFNpQhH+4OYX/q3sqcReovHi7Cg4SXsDYTNy7K/E+17mlBXpISrQkNLOzr706gBSWFHoKiuCXvaO5HVMtFIGIG9r6KpbpYaXzQ9byKQ8dowDZmmU13w+hu08uv2d3Yk5G2uaYroxJl6E4HYeLC3pQEL1DBKWlp1wimLxOWF6SIP4sKalLPRgl/FXywS/4aX1XZNfAueQ0ATl5TW1pfQsKBIvp7yu1w2NBAEcV1gw8HgWeapL2NcsTC7+xQblL3zw1+Yx1HC4y5hDs9fZL9UfMWC7qU8TDlzev6T+Xa7mMMK/rdwVmZzvsja/KE8p/Pm5JrfxUpEvpS4mP+akm9G5TjIen2NzKqeNymbwR7ma7TLea7neDk0elko6SKDrC/oYU6bVScMd7ZG5nLOlY5LXH52TQ4VhYc9tU1T1olOlL2HBfviLxqfB7KnzGDIyxqN0iI5O2v09ejklRnZpZMnlLlKxPnlzOVuZDbdsNzZ1jNf6Gs5ULr0slPuel62OvFJzs6fpVOsT/51lFT3IVxi/vQxv8vG/Xmdcbcxt0O0Gzrh9O5BvX8bc/k1KVH8S55irg2L4+Oxu1lQuvjXLORbb5xnsrM6trFT2nw3uiZBENedIRY4ojPyMbdT7shszcyf2CjnyGCPh9VLDehS5g5+Jfum4iLzOcvVRkvfGXWwtxaJnftg0M3s4m+1Y9Ci5KtSFkYC53PeiSkdDe8Y3b5YZ90XZD63U+5oeBm4jsR3mn1HmEsWFFZHM/MGe6P+gyHm36aEi7pEgROrKwlhRefm3yGLpuRrGgocTVpgczK3LyiHS6j3WMw7v8+lM+mQbTpjna1e2F4W9CiiJ9MXja9Zj2elLG7KmMO1P1ZecfmecJ+Dp5jbLqc1UZD1nWIeJX/i6pIicKL3INWPbUfk51B7//xcYnuSSuBI8fH0u09E842n/dix6ItMLM8T7k/A66TX5ZDvn78U+S7KJzgkcAjihmWIBM41FvI8ITcowuk0cPlAHRnijXm9h/WkG73a8PK0WR2s+Yh2tEY0oh7mkt4cdTqRW4ykzl3NOx1B2etjTtFJWBuZr1fkqL7A0XYm9Z6zOh2ttkPVXkcZIeL+umJZGy5R4MRElVFdiY3GxN+bvsDRXMu6knl6dEZENPVTXxDqkX064zpy3espI3CZpIejCjnj8lJHP7TxhjzMIfzwBPOEtMrQDK3A0b9erP6kKTY0+aKfp7F8MWxHNG1GXL0igUMQNyxDtAb0KkLdQflYEEbHlhrYVv4OB3My+KflCk5vexZPtpzkOmQltj77kM7iZgPUxct2NL68EU/NsWoWI42CtbwaqzY+g3orT3fzDnjP57COotCwTMf8ZXq7qSK44n8HO8VOutoHUGG4cHsAnx7xSjvuYH8aDUum6SwEG4WpS57EBrHeJ+46l+A/4OW1yQp77U/xQ3VHnYI2XAJXjuH15rf4wVJsaPiZbl2xWP8ej6e1U0zwKY7s3R9Ny4YnsWTqKNlfg2UaljQ8zWsZJ43t9RJ5SafYwTYXpUlhR2HK9FJpsT/OXEJfWutJeLkebUNzh1hXZVxeVtsy1Bquz3oPe/98OvP1TQbXs0z9GRo2LOVHAew88FH6uzL5nc+a931Yk25gNGbUvy5e9hByV+u3I5Y7MXvRTPkPgiBuBvQe5TwwFuWrD0kNhuQGQzjSzN/ldqyC3bYWrTkLBmFU8Dn8dkULwtZ6uNs3olqvgzFCXbx8ABsXGu3O+hEWL+Lv7eH92HvkU9mXEJ1B6fzobqoTwZCm01LERzlqq+7BeNk3mZj4LVk0G8VGNVDtUDTXGTiHY54AP5iJRbPv1K+8Bh1R5MJZfChElbUU06cY1ZXRKJ49ByX8mt53P+YSxoSBv6L7vTP8wCQtHEvxbIhqBHQj2JO6i89POo3SZMGYCZOQmVGEmEFM6w+mY0rK8jqGd09ejPrdUY5H6sv4wUnsWDEL46QFwnvQmtZiXSORJlDun9cOzzH8V9rWpYvwg+nfNSyrRKILjlvR2roHLQ01qFjTIZ8hCOJmIN1nPTcsVsx56llsFY1duBUvHOhO8XZshhA3m7C8UhgVFCMwz+Lxu4270+z5DqbNuov/fwbvdf/1lv5cQyIWeTdVeOc78F+RS/LKRziwk4sPqx1VFZOifrp8jnMnxGcbSjCv+HYTI4qjUVQcFSrhC5fxhTj4shcXvxQHM1FcNFoc6DAS4yZNlo9jRPou8ZLkhDehcsJt8TtkNO5bFWuiv3uvGyGzQr94DiekH5qlhTPydhTPE13xZVy4/FXUz4S8pzNnBtB3KSpYwlsqMUEnLVE3ThYAmudFjGBteB7NDiFyBF5sWbEUNcL6+G2pdq6NwZSJ385zAzUOkyeYlFXCjq3biiqwpKYGNTVLsWKLV/4RQRA3C8MjcASWu/DAYw/z97I0zf3rcgWnW36LckXc+FqwwWAEhhhClGmqsBcH/Je4R7rTU8MBFzgTzQQWMZxYrPPw9Pbj6Asegme3Cw5pfixKeMcaLK2ciRl123E6ne39Q0n/UTQ9bEPlii28bZGxOuDa7YHH0wZfsAd+l00+QRDEzcAw9kSa4fG05/819J9Ga8NSfE+alnKg+ci2YRI3VpRMyveb5M2OspZDWQOR7vSUIN2RsdhUlnXKRHxbHIyZgMlSBQqiO2S0niVx/VcUy7hJ0pQGSlzwX5OnTs1c12qUm1lhnjwNs6QIzdLCUaeyJmLKxFR2gYYgnTkTGxErcflxTS8NCS758yYWjJ1hQ/UvVmN7iP+mLwif5xW45JGd8I5GPPV6Z8Ko7pe4cNnIrlUEX/Ze4r/glEzCuJwfzssIPP8s1oh1RrZGeIK90XsJbcfqX1SjuvoRLJwRkUceCYK4WchPvx1uRZ00rPsoWjqNO57u40ejw+rzilGUQaMcCR/E2ocXokYME4sGqOP3eDpuYXAmDPDk/kYagh5R1YJOI6EV6cHxg6KjzGze/tbAgvEVD6CWv41L01SffJDm9JQgNvV05uBxdKfMfytmzSyC9GWhkdNwb42wWh3EweM9+p2fGi4ey5Tp+IEYPThzFMe701jsmwp16skkLZxI93EclCp9MWbemfr7SHlPZ87EFiabllcmjJ2BhdXLsXr7IfikT7jorSVKXOOlJc11QekycAaHnhcLu8vh/KdVqJ6hI9EjX+DyBUlSEQRxk5CffvuO7+MnSTteEuj/CG/sFCb8y1D/SHna1oOFuFm3vA6bpLer9fC9ul6/AUqbkbijbE6KnS0R9H/wZ+yULPL+X1hhy6N15kJh/D2oEp/ICO+De90fM5ie4vl/n136fhi8z2Fz2zmd+iI+sroV66SdbuKTD9Pliqp88oN3iOu2oi1psbqm3BJR0ovdWLf5bYMPs/I3+aaHJPFb1NCeYnfOHbjvkQdN0sKJnEPb5ucgrd6QLDubrP9QyHs6cyUmZo3LiyOmeCTrvxVoaBffhIvgSvvaqMXjBGvBeqijdBrCW5rxos7HeSPn38bmdbv50WKsevTeFCOG+UBbHwmCuGlgeWGQ9fmbZWNfWsNcgnijZ0mWQM3Q2hExsjWSFRpDczYn2xZntbiXBX1u2ZhYZgbaChFjK74amzSSS7BJIjEEhv60dSKu7Hi5eZvjrOYaG/oTdpnczKcawePnQn7mUY25pWMHhzPkhv4yS2c6NlmMy9MMrX2hhPISNnBUu1H8vNYOjpo/yffBb8TAQGCCoT+rg7m8Sr7GG/pLslmT0g6OUb5oDH/aGpnHML9l5/CwkHw+nTwnCOL6kCeBI9BaStV3VsdWdkTHRLza6CY0EqrV3HSdtuHRNpR6jXnfCWMz8JIzMrGfIt4Cw7RDVAz7ifOqcT8tQ/GpBtHpGH8eQVjvfTHrTzUIl1zuZnlwfT7VIJxOvEMmcASpPtXAXdLnE9K5D41lYYnY82V1rGKrDMtZ50Upa4HDU6qKSj0nBNprXHjXR//WijgSOARxw5LHpSXjMaN6A/YFD2G3yyHN2StYHS7s9gXRuX0l5ljTtVczgE9PHo0O7w8FY8tQv/09BH2vqYsdo5TB4XoNvuBuQxs5hIw6ncLLONPdU5apWLhxH0L+fXA7pQlDGZH/r6DNH4Bv4yIdo2w8qHURNvoC8Hu0u3LscLp96PjDCtw72aiOWTD27jps7wzCl7CjJxp+H/yhfRmVu5qWthfhtGkilHbgvJVxfFHyn87cGY+7619Cp87zDZsT7jY/Qr5/xsK45zt6H38K+NGWdB/Kc/YetteXRddYJTBm1nJsenUfPNrrydcK/KkOdycZeswey9RqvMTTGXctbV3cvAy2qsXy1GqaRhsJgriujBAqRz4mCIK4zoiviT8s2dQRu7ZOJ+3IIgiCSI/hewEkCIIgCIIYJkjgEARBEARRcJDAIQiCIAii4CCBQxAEQRBEwUGLjAmCIAiCKDhoBIcgCIIgiIKDBA5BEARBEAUHCRyCIAiCIAoOEjgEQRAEQRQcJHAIgiAIgig4SOAQBEEQBFFwkMAhCIIgCKLgIIFDEARBEETBQQKHIAiCIIiCgwQOQRAEQRAFBwkcgiAIgiAKDhI4BEEQBEEUHCRwCIIgCIIoOEjgEARBEARRcJDAIQiCIAii4Mi7wImEA2htqkPRiBEYIblZqGvahfbOK/IvsuEbhANvY09cvNwtaEDL3gDCEfln2RAJI7D3JTQsKFLjLaprwp72TvTLP7mVGQg0oVTN8yJUtZxG6uy+is6WR9X8HDGiFHWtn8jnhpp+BJoWSNctbQpgQPbNBTUPSpsQyEeEuTIQQFOpyNcFaAoMRy39BK11pXJZmrkqNLTswd5AOI06MjREwifxQfgb+a98wdufD04mtTM3XL0gCCKOPAoc3gi0P4PKogrUrNmBsOwLnMSONb9E5cylWNt+PvOGjwuQo8/9GuUVi7E0Ll5OxxasWFKBospn0J5FoxYJH8TaynJULPkHbOmIxRzesQZLK214eO3B3MRTwRGGd9f76EqVJ5GzOLzrsPwHcevgxZYVS7Gkwo7/3nJymF8QrqCzdS1vf/4HfKE8Cpz+02hteBhFS/cjRG0BQdxU5E3gRM6/iXW/Wo8OlMHh2o9g3yAYY2B9QXhdDlh547ep8gk0By7LIdLhG5xv+1csWSWEjR1Oty8WL+tF0OeG02blQmc9frXuTZzPpAHqP4lt/3MVNnX8N55eD/yhr2Pxehph41fs2LQK69rOXbe30RsK61zY5vK89u7H4a6rsqc+ka73scvLBaP9KTiXl8i+xM2PDS5/n/yc6Dj1WecvNSv+J57P6FnPlV6c3Ps6b3/yTN/H2LvFK/8Rz8jy1egS9921GuUjZU+CIG4Y8iRwrqLrwGto4X2atf4ZbFxVhRlj5ajHzsCi1f+Gl53l/I+30Pz6Mf6ulSaRbhx4oZVLjTLUe17EpvqFsXgxHjMW1mPTy1tRz/vdcMtG/HvHZ/K5VHDh5H0e63ac5J3w0/jHVdUot46Sz/F4q9fjZc9KqaFuecGXesTiVmBMJWpr5/ODw9h1+KyJ6ON14fB+LmetsC+z40fU8N86SM/677DPtZj/keGzThAEkWfyI3DUKYly1D52P6YmxToJFVV23uVxIfLhWVxIVzB8+jHeFSMBmIfFP56qm1jL1PvxWK0QTyF8ePaz9EZbtMLpiUqUJkU8ClMfqEatSLD3KE5+ShPsQviV3f8g7KmmqdS6MB/L5pfmcw6UuCmYiB/+vJrXE/6se47hv+jRIQjiOpGf/sdyN+oPhMCYH5sXflf2zAPWamyXhr+fR7XVaChgNCZMHsf/D+PMpS/SEziKcLI+jMceuEs/E8YvxOZQqmvfWtxWOhfL7CmmqZS8tT+I+aV/K3saobd4vAgLGl5KvVC1vxPte5pQV6Rd4NqOzv40akBS2BwXlksL1V9FU90sNb5oet5EIOsFrxGezI74vBGL6tNKo07YvCz2Tw/LuImYIg7OdOHcRUXhKIu/xcLoS7zcd2oW9j/E/bTTWZnUiwGEW3/Dz/9vqNlxhv/dgTUV46QwSYvMMyoneWF1UQ12iD/PrEHFt8TvYwu79RcZK/cpL6wXda2lAQvirpeqnmb5XOhsmFDCtdKmCeJWhA0Hg2eZp76McUXB7O5TbFD2zg9/YR5HCY+7hDk8f5H9zBhkvb5GxrtpBoeHhWRfQp9rfhcrEXlV4mL+a1+xoHupSTkqeaucNymbwR7ma7TzczxuXWdltkYvCyVdZJD1BT3MabPqhOHO1shczrnScYnLz67JoaLwsKe2MYdVJ5zk+DWdHhbsi79ofB7InjKDIS9rNEqL5Oys0dejk1dm9LKgp5HZdOPjadywiTlLxLGNufx9chiFXnbKXR+t37rOzpyeUywxlDlKOepdL5nBoJvZxbXi8quP+V02Hsdc5nQl3ttS5g5+Ff1ZxvXiGgt5ntD5XXz5Z15Oyj0n/i6WB/r1QrlPXufdbcztEO1eYhzc2dYzX+hrOYyGbJ+LvhPG15Kc0fNEEIXLEAsc0Rn5mNspP7C2ZuZP6DxyZbDHw+qlDkvTSJoSaxCjDeDXLOTfF0sjd1aHi+32BTPsBAqTxEZc7bzsbhZMKsqLzOcs15SFkcD5nHcCi+X85h2u2xcTFX1B5nM75Q6QN8quI/Hl0HeEueSOyupoZt5gb9R/MMT825RwUZcocGJ1JSGsVAd2yKIp+ZqGAkeTFticzK3WmYR6j8W8U/xcOpMaHtbfLN9HGXO49qt5Mxg6wrZp6mmy4Pia9XhWyuImPmx8/mSSHkEmAidWtlanj8stBaXjj6bd6tjGTklp43l/7ITc8eZQL8zSmEs5hTzMIc7piFtzgSPiE47fx7Yj8v1p6xk/l9QeZnv/youHiLORedR6LdCK5XTbSIIoDIZI4CS+VfEHUufNOGfUkSHeYNZ7WE9a0ccagxKXl50wfNvlaaY3nuRGfPAUc9tFA63TWPb6mFMICGsj8/WKjNMXODGhUcbqPWc1b80K2o5aex3N6JuuWNaGSxQ4mo7XoK7E3vLj702/I9Ncy7qSeXr03sZj9VNfEOqhiES9TpyjjTOxM1c7cuN8DfnWRzu7tNMjSEfgJIqFxPqh6fgN8iv7eiEwSmOO5ZSTwNG/j9h9ljOn76Lsm8v96z9nBHGrM0QCJ/EtJuri35pzRTMUb9Rw6RJLm9VmY3N5YxL3pis6AZO3+VuN5EbcaJoqJj5ib+56Da9G/Jp1sqqQ0l4n1vkbTnWq4RIEjiK+kjpGLfr3pt+RKfdmkhaOOuJlel0NaaQzFqe2M9eIv7TyNc30SCj3Kq6ZjtObltO0Cbrpy6VeCIwETo7llIvAMbyP2EtW7FnJ5f5j5RMbGSMIYog2uYxF+epDQjxF3WAIR5p5M7FjFey2tWg9n6shLmFU8Dn8dkULwtZ6uNs3onqqss07fcIdQYxyufGH1Zpt7RgFa3ktNr2wQdox1NHchqNX0li4esswGqXzo7upTgRDmoWLl+A/4OW+5aitugfjZd9kriLUHZSOShbNRrFRDbTcidmLZvIDzXUGzuGYJ8APZmLR7Dv1F4er4eKJXDiLD8WGPGsppk8xqiujUTx7Dkr4Nb3vfoxPZV9dBv6K7vfEolaTtHAsxbOxiPeCQDeCPamXeQ781zF4RDpL5mB28eioZwKxOLV8gwtnu3jK+S3+YDqmpMzXY3j35MWoX76wOeH2vAV/aB82LtTf9SjQT18O9cKMISqn1AgzCXN1dmgKlHqm3WmWy/3fgfseeTC6S3XH4/jeuDujC4tb39ZZPE0Qtw5Gj1F+sVgx56lnsbW+jD+BrXjhQLf5DhlThLjZhOWV69HBu9nGl5/F43cbd6fJjMS4SZOjh9bH8U//UMHlWDIWZcdQ2IsD/kuyLyFQ8ia88x34FfF35SMc2MnFh9WOqopJUT9dPse5E+KzDSWYV3w7Lw0jRqOoOCpUwhcu4wtx8GUvLn4pDmaiuEi/848rXw2RvksQ3RzCm1A54TbNLpN4962KNdHfvdeNkNkW54vncEL6oVlaOCNvR/E80ZVdxoXLX0X9DInwW7wE6RbnFaPIKHMs38akEtGdaRlA36WoYAlvqcQEnXuLunGoWCPM4Z3ht/jXDD9lkcLQ36HNqK/+mcamlD5jJk/AGPk4Rg71wowhKad0GIMpE7+dQQOby/2PwtQl/4g2/hIZrRX8xWzLP6CmZjEqiv4GI4rq0LSnI70dhgRRQAyPwBFY7sIDjz3MH8A0zf3rcgWnW36LckXc+FqwweRNUR/eAU6UO+BZpbhTHblJQH1TyleDV0BYpmP+svm8HVXEXwRX/O9gp9h5X/sAKsYPX7VKRlO+hQoXOBOnJEsE4hZGvEQ+vR2hviB8nlfgcvCXSYXwDqxZugAzZ/waLafJ9CJx6zCMPZEFYyZMir65nbmEvkwFjvRNmKX4njQt5UDzkW1ZiBvBSEyeVioND5un4yp6L/bJx0Q8ozBleikXqwHsPPARl53pTk8JvoNps+7i/6caQYgN2VunTMS3xcGYCZgsVaAgukNGn4uIhdNiGTcpWuYlLviv6Yw+JLpU5vcnT8MsKUKztHDUKZKJ/I0+lV0gzTNiNoKkxqklNnJV4vLjmt49Jbiu1eUmIwXDTQ71wowhKad0+JK/GBnZ5dKM1JVMwjipEcvT/Y+dgYXVy7F6+wlexuJzNm3YLX0+gxNuwYqn9qCTBnKIW4T8CJxwK+qk4e9H0dJp3PF0Hz8aHf43G37XQfoo5sMLUSO+CWNrhKfj93h6jjXrxI/8u3tRI574M0dxvNsgvZHPcPbDED+4C7OmfSfqR8hYML7iAcnSszRN9ckHaU5PCWJD7GcOHke3UWMb6cHxg6Iht2LWzKLoNOLIabi3RlitDuLg8R79zkMNF49lynT8IFWZZ4I6pWGSFk6k+zgOSpW+GDPv1JsMjSeduhmLU4siOlPk6w1LDvXCjCEqp9SYrRHSWy81FPcvPmfzCH6x+k847WuMihyyzE7cQuRH4NzxffxErFcx+05R/0d4Y6cw4V+G+kfKcUfUNyVC3KxbXodN4mvftvXwvboe1TMyWXOjw/h7UCV93uEwdr7xkW4jpH4w0vZzLJhJ0wFJKHkY3gf3uj9mMD01EnfcZ5e+Hwbvc9is+zFT8ZHVrVgnfaZDfPJhulxRlU9+hOFdtxVtSYvVI+j/4M/YKYVLQC3z3Vi3+W2DD7NeRqDpIWmtSlFDe4rvKCkLO43SwomcQ9vm5yB9qlGy7GyyBkQhZTov44M3WqNxxhETncb5yuk/iibJ0m0FGtrT/XbbcJBLvdDSh4u9WmGYp3L68hJ6v9TNUUPCW5rxos4HRyPn38bmdbv50WKsevReecQzh/u/0o4GySp3okVoHayTMPHb+Wn2CeKGh+UFrXEyrWErQbx9jIy2MWrtU2S0FTw1WpsTxtvEjexR3Drob4UVaLYlSy7epkcUZftqHg39aeuEzcm2+UNy+fSyoLc5zkqxsaE/YZfJzXwakwWDIT/zuBw6NkZM8mBIDP0lpnMH8ysWb3neeNU0Cmdi8yUxX6V67WEuxdqt2VbkJIy2YGdCbPt0YrnEyIehP51z+TD0p3Mu5TZx4awO5vIq14s39Jdsjynb+9eEi7s/AZm9IG5d8iRwBGbm5aPO6tjKjuiYJ1cbioQGNGabIk0X9+kFTUOjY8NCatxMzfZz4dN8WMfQX6p4CwtjgcNRbbZwpxr302IkcDhZf6qBBzUxuy9sLb2Y9acahEu24WKWB0PzqQbeKSkG+ZIcr5f/sTWHTzVwZ/SZAEOGS+Bwsq4XGmu+itO0B1mXk8auUtTF6nIqgWN1rGKrDOupwYvekH2qweSaBFGg5FHgCMQb0SG2O+4tUzxY5p8+0Bc4idaQ03AZCRwZ8Wa026Xp9HgD4nyRtakjA4mQwImhGN7jZRxnll/BROBIiLfL+M9kREfUXjHJfxnx6QGPttyUN97e1B1pUpkr4ffFRks0mOcBR6Sl7cWYCX7hxJv77rd040uX+FEl7pS382t+5jIUOAL951AK3+bXFY3mDKPAkciyXiSOcCWOUmVVTiIv98dGvnj7oBjYSyVwxH1+rVeGKcsgy/uX7u8VTVqjjj49Q9yqjBD/8IeAIAiCyBnxNfGHJVtDXODg9A21U40gbi1otRlBEARBEAUHCRyCIAiCIAoOEjgEQRAEQRQcJHAIgiAIgig4aJExQRAEQRAFB43gEARBEARRcJDAIQiCIAii4CCBQxAEQRBEgQH8//vpfljGMYLaAAAAAElFTkSuQmCC;" vertex="1" parent="1">
          <mxGeometry x="660" y="70" width="148" height="73.74" as="geometry" />
        </mxCell>
        <mxCell id="y8rQY9mG8gNt_0g14nDT-12" value="XP&lt;div&gt;SCRUM&lt;/div&gt;&lt;div&gt;KANBAN&lt;/div&gt;" style="whiteSpace=wrap;html=1;rounded=0;" vertex="1" parent="1">
          <mxGeometry x="660" y="170" width="120" height="60" as="geometry" />
        </mxCell>
        <mxCell id="y8rQY9mG8gNt_0g14nDT-15" style="edgeStyle=orthogonalEdgeStyle;rounded=0;orthogonalLoop=1;jettySize=auto;html=1;entryX=0.006;entryY=0.635;entryDx=0;entryDy=0;entryPerimeter=0;flowAnimation=1;" edge="1" parent="1" source="y8rQY9mG8gNt_0g14nDT-2" target="y8rQY9mG8gNt_0g14nDT-7">
          <mxGeometry relative="1" as="geometry" />
        </mxCell>
        <mxCell id="y8rQY9mG8gNt_0g14nDT-16" value="Ciclo de vida del Software" style="text;html=1;align=center;verticalAlign=middle;whiteSpace=wrap;rounded=0;" vertex="1" parent="1">
          <mxGeometry x="540" y="100" width="60" height="30" as="geometry" />
        </mxCell>
        <mxCell id="y8rQY9mG8gNt_0g14nDT-17" value="&lt;ul style=&quot;font-size: 6px;&quot;&gt;&lt;li style=&quot;font-size: 6px;&quot;&gt;Análisis&lt;/li&gt;&lt;li style=&quot;font-size: 6px;&quot;&gt;Diseño&lt;/li&gt;&lt;li style=&quot;font-size: 6px;&quot;&gt;Desarrollo&lt;/li&gt;&lt;li style=&quot;font-size: 6px;&quot;&gt;Prueba&lt;/li&gt;&lt;li style=&quot;font-size: 6px;&quot;&gt;Implementación&lt;/li&gt;&lt;/ul&gt;" style="text;html=1;align=left;verticalAlign=middle;whiteSpace=wrap;rounded=0;fontSize=6;" vertex="1" parent="1">
          <mxGeometry x="510" y="143.74" width="77" height="40" as="geometry" />
        </mxCell>
      </root>
    </mxGraphModel>
  </diagram>
</mxfile>
